# xmcd
#
# Track frame offsets:
#	150
#	11727
#	25560
#	37517
#	56432
#	69832
#	84262
#	96855
#	110397
#	130647
#	145310
#	165047
#	178627
#	193220
#	217442
#	230150
#	243572
#	259084
#	271480
#	286470
#	301102
#
# Disc length: 4278 seconds
#
# Revision: 1
# Processed by: cddbd v1.5.1PL0 Copyright (c) Steve Scherf et al.
# Submitted via: audiograbber 1.81.02
#
DISCID=1c10b415
DTITLE=Verschiedene - Unvergessen - Lieder, die bleiben (www.gerth.de)
DYEAR=2005
DGENRE=Chorus
TTITLE0=O lasst uns mit Jauchzen erheben
TTITLE1=Ich bin ja geborgen in Jesus
TTITLE2=Der Herr, mein Hirte, führet mich
TTITLE3=Bleibend ist deine Treu
TTITLE4=Lob, meine Seel, den Herrn
TTITLE5=Gott sitzt am Webstuhl meines Lebens
TTITLE6=Auf Adlers Flügeln getragen
TTITLE7=In Gottes Hand bin ich geborgen
TTITLE8=Meister, es toben die Winde
TTITLE9=Gott wird dich tragen
TTITLE10=Nimm mich bei der Hand, Vater
TTITLE11=Weiß ich den Weg auch nicht
TTITLE12=Ich hab einen herrlichen König
TTITLE13=Als ich ein kleines Kind noch war
TTITLE14=Nur mit Jesu will Pilger wandern
TTITLE15=Hier hast du meine beiden Hände
TTITLE16=Am anderen Ufer, da gibt es kein Leid
TTITLE17=Bis hierher hat mich Gott gebracht
TTITLE18=Herr, weil mich festhält
TTITLE19=Herr, führe du
TTITLE20=Die Himmel erzählen die Ehre Gottes
EXTD=
EXTT0=
EXTT1=
EXTT2=
EXTT3=
EXTT4=
EXTT5=
EXTT6=
EXTT7=
EXTT8=
EXTT9=
EXTT10=
EXTT11=
EXTT12=
EXTT13=
EXTT14=
EXTT15=
EXTT16=
EXTT17=
EXTT18=
EXTT19=
EXTT20=
PLAYORDER=
